<?xml version="1.0" encoding="UTF-8"?>
<svg version="1.1" xmlns="http://www.w3.org/2000/svg" width="199" height="196">
<path d="M0 0 C3.62531608 1.8741654 5.69121639 4.07364917 7 8 C7.39504158 12.81950724 7.462422 15.09167107 5.25 19.4375 C3 22 3 22 -1 23 C-1 29.27 -1 35.54 -1 42 C4.28 42 9.56 42 15 42 C15 39.69 15 37.38 15 35 C13.8553125 34.7215625 13.8553125 34.7215625 12.6875 34.4375 C9.64497191 32.81010125 8.56514658 31.3026424 7.375 28.0703125 C6.66517919 24.15151012 7.54331319 20.65585962 9 17 C11.29217666 14.0423527 12.44791835 13.18402722 16 12 C21.30585376 11.65768685 24.73795828 11.46859401 29 15 C32.16312474 18.70849107 32.52050886 22.12831839 32.35546875 26.84375 C31.81296564 30.13453812 30.45790459 31.81519592 28 34 C25.75 34.8125 25.75 34.8125 24 35 C24 37.64 24 40.28 24 43 C31.92 42.505 31.92 42.505 40 42 C40 35.73 40 29.46 40 23 C38.68 22.34 37.36 21.68 36 21 C33.63118477 18.37509664 32.12529915 16.36865226 31.796875 12.78125 C32.05610735 8.46071081 32.65166328 6.42872212 35.4375 3 C39.54501689 -0.20586684 42.33042877 -0.3890062 47.44921875 -0.359375 C51.55868504 0.21960034 53.21349577 1.99914929 56 5 C57.85127843 8.70255686 57.4638553 12.95874013 57 17 C55.25 20.0625 55.25 20.0625 53 22 C51.68 22.33 50.36 22.66 49 23 C49 29.27 49 35.54 49 42 C51.64 42.66 54.28 43.32 57 44 C62.28538304 46.9959015 65.24596527 50.6318921 67 56.4375 C67.33 57.943125 67.66 59.44875 68 61 C74.27 61 80.54 61 87 61 C87.66 59.35 88.32 57.7 89 56 C93.33520598 53.07625643 96.82614852 52.35326856 102 53 C105.64450372 54.82225186 107.59278629 56.42201925 109.9375 59.75 C111.27927006 63.85423785 111.2572166 66.88006723 110 71 C107.85293084 74.40569591 105.89582897 76.80960782 102 78 C95.38841327 78.86709334 95.38841327 78.86709334 91.9609375 76.7265625 C89.50979628 74.65872732 87.44382359 72.88764718 86 70 C79.73 69.67 73.46 69.34 67 69 C67 74.94 67 80.88 67 87 C70.465 86.505 70.465 86.505 74 86 C75.60907108 83.62387135 75.60907108 83.62387135 77 81 C81.07197165 78.37584049 84.18003523 77.3114336 89 78 C93.03724943 79.52690844 95.48644484 81.27781306 98 84.8125 C99.24778281 88.7898077 99.14550631 90.9907279 98 95 C95.79595506 98.58054884 93.12434917 101.78695613 89 103 C84.71738649 103.47584595 82.52559976 103.27767535 78.6875 101.25 C76 99 76 99 75.0625 96.8125 C74.711875 96.214375 74.36125 95.61625 74 95 C71.69 94.67 69.38 94.34 67 94 C67 99.94 67 105.88 67 112 C70.06633164 111.99398168 73.12257941 111.94653717 76.1875 111.875 C77.05181641 111.87757812 77.91613281 111.88015625 78.80664062 111.8828125 C83.5774618 111.81897696 83.5774618 111.81897696 87.66308594 109.65478516 C89.1873268 107.85524156 89.1873268 107.85524156 91 105 C94.47238187 102.45358663 97.79212007 102.56470208 102 103 C105.64450372 104.82225186 107.59278629 106.42201925 109.9375 109.75 C111.24970514 113.76380395 111.32017027 117.02367877 110 121 C108.16831486 123.9549485 106.1633409 126.41832955 103 128 C98.97289888 128.64794499 95.43716038 128.84923113 91.8515625 126.73046875 C90.06823345 125.23465602 88.4606839 123.81293886 87 122 C87 121.34 87 120.68 87 120 C85.72382813 120.01160156 84.44765625 120.02320312 83.1328125 120.03515625 C81.46354313 120.04453417 79.79427217 120.05363437 78.125 120.0625 C77.28324219 120.07087891 76.44148437 120.07925781 75.57421875 120.08789062 C74.76855469 120.09111328 73.96289062 120.09433594 73.1328125 120.09765625 C72.01737061 120.10551147 72.01737061 120.10551147 70.87939453 120.11352539 C69 120 69 120 67 119 C66.99742187 119.56847656 66.99484375 120.13695313 66.9921875 120.72265625 C66.71286047 126.29988591 65.58713168 129.52962619 61.6796875 133.55859375 C58.37819364 136.39173616 55.47258676 137.90396173 51.125 138.1875 C50.42375 138.125625 49.7225 138.06375 49 138 C49.10961251 142.63056822 49.10961251 142.63056822 51.3671875 146.5078125 C52.87798332 147.71500342 54.43742668 148.86062362 56 150 C57.72589785 153.45179569 57.36043965 157.21866039 57 161 C55.699544 164.14847243 54.4485648 165.61740061 51.875 167.8125 C47.82946019 169.48348384 44.31058373 169.81202898 40 169 C36.61430064 167.25693868 34.50190369 164.88973835 32.625 161.5625 C31.46604494 156.81078425 31.3855863 154.10170733 33.8125 149.75 C36 147 36 147 39 145 C39 143.02 39 141.04 39 139 C34.38 139 29.76 139 25 139 C24.67 143.95 24.34 148.9 24 154 C25.65 154.66 27.3 155.32 29 156 C32.17088925 159.60825328 32.56925511 163.13284379 32.4296875 167.77734375 C31.69387346 171.58350909 29.77545759 173.35670706 27 176 C23.27533151 177.86233425 19.05504687 177.57130829 15 177 C11.87421857 175.3279253 9.60718825 173.2143765 8 170 C7.48487383 165.90842645 7.05632731 161.76410454 9.046875 158.04296875 C10.81398622 155.90684313 12.50898341 154.24550829 15 153 C15.47001033 149.72444392 15.47001033 149.72444392 15.625 145.9375 C15.74875 143.648125 15.8725 141.35875 16 139 C10.39 139 4.78 139 -1 139 C-0.96695791 141.91971883 -0.89977677 144.8318228 -0.8125 147.75 C-0.80669922 148.575 -0.80089844 149.4 -0.79492188 150.25 C-0.66668739 155.42084959 -0.66668739 155.42084959 2.46875 159.40234375 C3.72171875 160.19318359 3.72171875 160.19318359 5 161 C7.02984668 165.34967146 7.51988781 169.2343617 7 174 C4.87915298 177.40850414 2.8818913 179.81386655 -1 181 C-6.41271309 181.4295804 -9.56839874 181.41866383 -14 178 C-17.24478304 175.21875739 -17.90735359 172.98205195 -18.3125 168.6875 C-17.94050629 164.2979742 -16.80652364 162.35223657 -14 159 C-12.02 158.01 -12.02 158.01 -10 157 C-10 151.39 -10 145.78 -10 140 C-11.876875 139.154375 -13.75375 138.30875 -15.6875 137.4375 C-21.29301606 134.62152141 -24.15556345 132.59078907 -27 127 C-27.60992132 124.59784835 -27.84744529 122.49172687 -28 120 C-32.63056822 120.10961251 -32.63056822 120.10961251 -36.5078125 122.3671875 C-37.71500342 123.87798332 -38.86062362 125.43742668 -40 127 C-43.76774612 128.88387306 -47.91976821 128.78730353 -52 128 C-55.19026068 125.56750583 -57.21962967 122.56074067 -59 119 C-59.37766377 113.99595502 -59.11200434 111.00114844 -56 107 C-52.93071917 103.69462065 -49.5065089 103.27772083 -45.17578125 102.9375 C-40.62569766 103.06820258 -38.44338579 105.53498563 -35.4375 108.6875 C-33.0763442 111.45884029 -33.0763442 111.45884029 -29 111 C-28.67 105.72 -28.34 100.44 -28 95 C-30.2275 94.896875 -32.455 94.79375 -34.75 94.6875 C-36.00296875 94.62949219 -37.2559375 94.57148437 -38.546875 94.51171875 C-42.14651504 94.65150426 -42.14651504 94.65150426 -44.2421875 97.40625 C-44.82226562 98.2621875 -45.40234375 99.118125 -46 100 C-50.42895401 102.37851234 -53.97193677 103.65583433 -59 103 C-63.47822413 101.29400986 -65.47147693 98.4908643 -67.40234375 94.26171875 C-68.46535222 90.2389612 -67.64604172 86.75909992 -66 83 C-62.74519351 79.64019975 -59.20180729 78.84372302 -54.625 78.75 C-50.61713417 78.80213484 -48.14210401 79.33397236 -45 82 C-44.78472656 82.680625 -44.56945312 83.36125 -44.34765625 84.0625 C-43.90292969 84.701875 -43.45820312 85.34125 -43 86 C-40.3062448 86.47216383 -38.07412666 86.69427756 -35.375 86.75 C-32.94125 86.8325 -30.5075 86.915 -28 87 C-28 81.06 -28 75.12 -28 69 C-30.8875 69.061875 -33.775 69.12375 -36.75 69.1875 C-37.65331055 69.19418701 -38.55662109 69.20087402 -39.48730469 69.20776367 C-44.49211542 69.35658357 -44.49211542 69.35658357 -48.328125 72.42578125 C-48.87984375 73.27527344 -49.4315625 74.12476562 -50 75 C-54.5090449 78.00909731 -59.80194767 77.96010202 -65 77 C-67.98696661 75.17937273 -69.56395684 73.1744112 -71 70 C-72.05043275 65.21929033 -71.4615167 61.94012661 -69.3125 57.5625 C-65.90350431 53.78496424 -63.54836891 53.16891297 -58.5625 52.625 C-54.28035114 53.07575251 -52.30943627 54.29227941 -49 57 C-48.63777344 57.70125 -48.27554688 58.4025 -47.90234375 59.125 C-45.60942819 61.38495784 -44.89983864 61.29651032 -41.76953125 61.390625 C-40.11673599 61.36407407 -38.46417337 61.31642461 -36.8125 61.25 C-35.96751953 61.23195312 -35.12253906 61.21390625 -34.25195312 61.1953125 C-32.16748427 61.14820586 -30.08359856 61.07646233 -28 61 C-27.8980835 60.37061523 -27.79616699 59.74123047 -27.69116211 59.09277344 C-26.70154049 53.29669169 -25.26619035 50.07227261 -21 46 C-16.74745208 43.37608746 -14.11424719 42.85237453 -9 42 C-9.33 35.73 -9.66 29.46 -10 23 C-12.475 22.01 -12.475 22.01 -15 21 C-18.12855488 16.72430832 -18.41332348 13.19144187 -17.65234375 8.12109375 C-16.63291033 4.80640904 -14.68014781 3.09182268 -12 1 C-8.27287842 -0.86356079 -4.0579268 -0.56549975 0 0 Z M41 8 C39.85796048 12.09542781 39.85796048 12.09542781 41.125 15.9375 C43.01238573 17.21055745 43.01238573 17.21055745 45.5625 17 C48.20069654 16.20004009 48.20069654 16.20004009 49.4375 13.625 C49.623125 12.75875 49.80875 11.8925 50 11 C48.36832984 7.92881969 48.36832984 7.92881969 46.0625 7.25 C43.80528017 6.82708086 43.80528017 6.82708086 41 8 Z M17 20 C14.735616 22.69155201 14.735616 22.69155201 15.25 25.0625 C15.92532718 27.19476975 15.92532718 27.19476975 18 29 C20.55460214 29.07272562 20.55460214 29.07272562 23 28 C24.37466625 25.52363988 24.37466625 25.52363988 25 23 C23.19873295 20.72471531 22.3633843 20.05317819 19.4375 19.625 C18.633125 19.74875 17.82875 19.8725 17 20 Z M-59 60 C-60.65 61.65 -62.3 63.3 -64 65 C-62.8624438 67.59141286 -62.8624438 67.59141286 -61 70 C-58.45709375 70.58350505 -58.45709375 70.58350505 -56 70 C-53.79142762 68.17213728 -53.79142762 68.17213728 -53.5625 65.5625 C-53.73583949 62.74700141 -53.73583949 62.74700141 -56.5 61.1875 C-57.325 60.795625 -58.15 60.40375 -59 60 Z M-56 85 C-57.32 86.32 -58.64 87.64 -60 89 C-58.91215032 92.24983135 -58.91215032 92.24983135 -57 95 C-54.54207971 95.33343551 -54.54207971 95.33343551 -52 95 C-49.74837398 92.24528606 -49.74837398 92.24528606 -50.0625 89.4375 C-50.78485233 86.75056378 -50.78485233 86.75056378 -53.5625 85.6875 C-54.7690625 85.3471875 -54.7690625 85.3471875 -56 85 Z M85 85 C82.85432087 86.72855926 82.85432087 86.72855926 81 89 C81.17753613 92.01811422 81.83735215 92.83735215 84 95 C87.30683466 94.71016731 87.30683466 94.71016731 90 93 C90.04080783 91.00041636 90.04254356 88.99954746 90 87 C87.525 86.01 87.525 86.01 85 85 Z M94.1875 112.5 C93.795625 112.995 93.40375 113.49 93 114 C93.62533375 116.52363988 93.62533375 116.52363988 95 119 C97.39351495 120.16210219 97.39351495 120.16210219 100 120 C102 119 102 119 103 117 C102.75794651 113.68181015 102.75794651 113.68181015 101 111 C97.27846731 110.60727943 97.27846731 110.60727943 94.1875 112.5 Z M16 161 C15.67 162.98 15.34 164.96 15 167 C16.67488528 168.73647948 16.67488528 168.73647948 19 170 C21.74303573 169.58612501 21.74303573 169.58612501 24 168 C25.24774386 166.17576488 25.24774386 166.17576488 25 164 C23.27062171 161.68721883 23.27062171 161.68721883 21 160 C18.78918149 159.89459074 18.78918149 159.89459074 16 161 Z M-10 167 C-9.62095792 170.29075996 -9.62095792 170.29075996 -8 173 C-6.00041636 173.04080783 -3.99954746 173.04254356 -2 173 C-1.34 171.35 -0.68 169.7 0 168 C-1.28965176 166.62437146 -2.62689293 165.29233607 -4 164 C-6.76223278 164 -7.89281454 165.31425163 -10 167 Z " fill="#FCFAF9" transform="translate(77,3)"/>
<path d="M0 0 C0.91567245 -0.00241196 1.83134491 -0.00482391 2.77476501 -0.00730896 C4.70543765 -0.00633174 6.63613873 0.00703209 8.56665039 0.03198242 C11.52131222 0.06633612 14.47298961 0.05262444 17.42773438 0.03320312 C19.30600231 0.04010061 21.18426253 0.04977211 23.0625 0.0625 C24.38605247 0.0550602 24.38605247 0.0550602 25.73634338 0.04747009 C29.37743143 0.11741104 31.80944554 0.26120867 35.01708984 2.06079102 C37.25849767 6.03673856 37.05580953 9.79213281 37.03125 14.28515625 C37.04054787 15.69408142 37.04054787 15.69408142 37.05003357 17.13146973 C37.05712989 19.11514246 37.05396101 21.09887477 37.04125977 23.08251953 C37.02739071 26.11862644 37.0614706 29.15165328 37.09960938 32.1875 C37.10056055 34.11588617 37.09870183 36.0442762 37.09375 37.97265625 C37.10700821 38.8800354 37.12026642 39.78741455 37.13392639 40.72229004 C37.07413128 44.76654392 37.00183756 46.92303003 34.5078125 50.20141602 C30.30498549 52.17300856 26.73915327 52.1850743 22.1484375 52.125 C21.25496109 52.12645523 20.36148468 52.12791046 19.44093323 52.12940979 C17.55734995 52.12775389 15.67375271 52.11622722 13.7902832 52.09545898 C10.90843263 52.0664675 8.02841854 52.07486355 5.14648438 52.08789062 C3.31379315 52.08165388 1.48110773 52.07326344 -0.3515625 52.0625 C-1.21205704 52.06543564 -2.07255157 52.06837128 -2.9591217 52.07139587 C-6.4938617 52.01565907 -8.89284867 51.97150776 -12.04663086 50.28930664 C-16.59977329 45.21042823 -14.84334294 35.09039875 -14.88525391 28.58740234 C-14.9018251 26.70186022 -14.92913055 24.81638122 -14.96728516 22.93115234 C-15.02208823 20.20767761 -15.04393011 17.48567076 -15.05859375 14.76171875 C-15.08126312 13.92198517 -15.1039325 13.08225159 -15.12728882 12.21707153 C-15.11261017 8.1443444 -14.83647309 6.10053757 -12.59838867 2.59741211 C-8.33797707 -0.14042951 -4.96901457 -0.07483464 0 0 Z " fill="#FEFEFE" transform="translate(85.53515625,67.37109375)"/>
<path d="M0 0 C1.98 0 3.96 0 6 0 C6.92773438 2.5390625 6.92773438 2.5390625 7.85546875 5.078125 C9.62387141 8.04759295 10.9680526 9.18894626 14 11 C18.16625535 11.62855042 22.31211705 11.60498393 26.51953125 11.609375 C27.73323898 11.62591125 28.94694672 11.64244751 30.19743347 11.65948486 C34.06917351 11.70802083 37.94052058 11.72934944 41.8125 11.75 C44.43947295 11.77815481 47.06642756 11.80808153 49.69335938 11.83984375 C56.12883478 11.91378166 62.56419941 11.96539147 69 12 C69 14.31 69 16.62 69 19 C63.57364835 20.80878388 57.66885438 20.05200784 52 20 C51.67 24.95 51.34 29.9 51 35 C52.65 35.66 54.3 36.32 56 37 C59.17088925 40.60825328 59.56925511 44.13284379 59.4296875 48.77734375 C58.69387346 52.58350909 56.77545759 54.35670706 54 57 C50.27533151 58.86233425 46.05504687 58.57130829 42 58 C38.87421857 56.3279253 36.60718825 54.2143765 35 51 C34.48487383 46.90842645 34.05632731 42.76410454 36.046875 39.04296875 C37.81398622 36.90684313 39.50898341 35.24550829 42 34 C42.47001033 30.72444392 42.47001033 30.72444392 42.625 26.9375 C42.74875 24.648125 42.8725 22.35875 43 20 C37.39 20 31.78 20 26 20 C26.03304209 22.91971883 26.10022323 25.8318228 26.1875 28.75 C26.19330078 29.575 26.19910156 30.4 26.20507812 31.25 C26.33331261 36.42084959 26.33331261 36.42084959 29.46875 40.40234375 C30.3040625 40.92957031 31.139375 41.45679688 32 42 C34.02984668 46.34967146 34.51988781 50.2343617 34 55 C31.87915298 58.40850414 29.8818913 60.81386655 26 62 C20.58728691 62.4295804 17.43160126 62.41866383 13 59 C9.75521696 56.21875739 9.09264641 53.98205195 8.6875 49.6875 C9.05949371 45.2979742 10.19347636 43.35223657 13 40 C14.32 39.34 15.64 38.68 17 38 C17 32.39 17 26.78 17 21 C15.123125 20.154375 13.24625 19.30875 11.3125 18.4375 C6.1672981 15.84363788 2.05705299 13.59007056 0 8 C-0.3606565 5.18885552 -0.25015505 2.85176756 0 0 Z M43 42 C42.67 43.98 42.34 45.96 42 48 C43.67488528 49.73647948 43.67488528 49.73647948 46 51 C48.74303573 50.58612501 48.74303573 50.58612501 51 49 C52.24774386 47.17576488 52.24774386 47.17576488 52 45 C50.27062171 42.68721883 50.27062171 42.68721883 48 41 C45.78918149 40.89459074 45.78918149 40.89459074 43 42 Z M17 48 C17.37904208 51.29075996 17.37904208 51.29075996 19 54 C20.99958364 54.04080783 23.00045254 54.04254356 25 54 C25.66 52.35 26.32 50.7 27 49 C25.71034824 47.62437146 24.37310707 46.29233607 23 45 C20.23776722 45 19.10718546 46.31425163 17 48 Z " fill="#545454" transform="translate(50,122)"/>
<path d="M0 0 C3.12578143 1.6720747 5.39281175 3.7856235 7 7 C7.52447771 11.85786729 7.70864378 15.75987339 5.25 20.0625 C3 22 3 22 -1 23 C-1 29.27 -1 35.54 -1 42 C1.64 42.66 4.28 43.32 7 44 C10.94097493 46.48343975 14.14360037 49.53698397 16.5 53.5625 C17.08821422 56.43004433 17.1357716 59.0809107 17 62 C15.02 62 13.04 62 11 62 C10.65388672 61.18595703 10.65388672 61.18595703 10.30078125 60.35546875 C9.97464844 59.64003906 9.64851563 58.92460938 9.3125 58.1875 C8.99925781 57.47980469 8.68601563 56.77210937 8.36328125 56.04296875 C6.58738184 53.3816639 4.84727124 52.44353984 2 51 C-0.67809275 50.53528139 -0.67809275 50.53528139 -3.5246582 50.56762695 C-5.14577263 50.53793571 -5.14577263 50.53793571 -6.79963684 50.50764465 C-7.9550145 50.50125473 -9.11039215 50.49486481 -10.30078125 50.48828125 C-11.49229294 50.47033005 -12.68380463 50.45237885 -13.91142273 50.43388367 C-17.71174598 50.37976309 -21.51194348 50.34587824 -25.3125 50.3125 C-27.89129354 50.2793286 -30.47007049 50.24483911 -33.04882812 50.20898438 C-39.36577267 50.12403537 -45.68273344 50.05569264 -52 50 C-52 47.69 -52 45.38 -52 43 C-43.585 42.505 -43.585 42.505 -35 42 C-35 39.69 -35 37.38 -35 35 C-35.763125 34.814375 -36.52625 34.62875 -37.3125 34.4375 C-40.35502809 32.81010125 -41.43485342 31.3026424 -42.625 28.0703125 C-43.33482081 24.15151012 -42.45668681 20.65585962 -41 17 C-38.70782334 14.0423527 -37.55208165 13.18402722 -34 12 C-28.69414624 11.65768685 -25.26204172 11.46859401 -21 15 C-17.83687526 18.70849107 -17.47949114 22.12831839 -17.64453125 26.84375 C-18.18703436 30.13453812 -19.54209541 31.81519592 -22 34 C-24.25 34.8125 -24.25 34.8125 -26 35 C-26 37.64 -26 40.28 -26 43 C-18.08 42.505 -18.08 42.505 -10 42 C-10 35.73 -10 29.46 -10 23 C-11.32 22.34 -12.64 21.68 -14 21 C-16.36881523 18.37509664 -17.87470085 16.36865226 -18.203125 12.78125 C-17.94389265 8.46071081 -17.34833672 6.42872212 -14.5625 3 C-9.92946989 -0.6160235 -5.76162328 -0.81174478 0 0 Z M-9 8 C-10.14203952 12.09542781 -10.14203952 12.09542781 -8.875 15.9375 C-6.98761427 17.21055745 -6.98761427 17.21055745 -4.4375 17 C-1.79930346 16.20004009 -1.79930346 16.20004009 -0.5625 13.625 C-0.376875 12.75875 -0.19125 11.8925 0 11 C-1.63167016 7.92881969 -1.63167016 7.92881969 -3.9375 7.25 C-6.19471983 6.82708086 -6.19471983 6.82708086 -9 8 Z M-33 20 C-35.264384 22.69155201 -35.264384 22.69155201 -34.75 25.0625 C-34.07467282 27.19476975 -34.07467282 27.19476975 -32 29 C-29.44539786 29.07272562 -29.44539786 29.07272562 -27 28 C-25.62533375 25.52363988 -25.62533375 25.52363988 -25 23 C-26.80126705 20.72471531 -27.6366157 20.05317819 -30.5625 19.625 C-31.366875 19.74875 -32.17125 19.8725 -33 20 Z " fill="#585858" transform="translate(127,3)"/>
<path d="M0 0 C1.21236328 0.02707031 1.21236328 0.02707031 2.44921875 0.0546875 C3.37154297 0.08949219 3.37154297 0.08949219 4.3125 0.125 C4.8075 2.6 4.8075 2.6 5.3125 5.125 C4.78140625 5.34414063 4.2503125 5.56328125 3.703125 5.7890625 C2.99671875 6.10617188 2.2903125 6.42328125 1.5625 6.75 C0.86640625 7.05164062 0.1703125 7.35328125 -0.546875 7.6640625 C-3.5240215 9.69591066 -5.3041955 11.83208771 -6.6875 15.125 C-7.29573461 19.18195451 -7.29241399 23.20783695 -7.296875 27.3046875 C-7.31341125 28.4725882 -7.32994751 29.64048889 -7.34698486 30.84378052 C-7.39544853 34.56257394 -7.41683332 38.28095843 -7.4375 42 C-7.46566087 44.52606222 -7.49558845 47.05210541 -7.52734375 49.578125 C-7.60120735 55.76034248 -7.65285955 61.94244502 -7.6875 68.125 C-9.6675 68.125 -11.6475 68.125 -13.6875 68.125 C-13.6875 61.855 -13.6875 55.585 -13.6875 49.125 C-19.2975 49.125 -24.9075 49.125 -30.6875 49.125 C-31.0175 51.105 -31.3475 53.085 -31.6875 55.125 C-35.06789389 58.63338207 -38.61405267 58.86711802 -43.28515625 59.17578125 C-46.71346972 59.10331284 -48.21458255 58.52518458 -50.6875 56.125 C-53.15898005 52.83739258 -54.73022542 49.88813554 -54.62890625 45.70703125 C-53.96514566 42.10627691 -53.32419011 39.7822285 -50.75 37.125 C-46.0552792 34.84877173 -41.81391596 34.62046697 -36.6875 35.125 C-33.75 36.375 -33.75 36.375 -31.6875 38.125 C-31.47222656 38.805625 -31.25695312 39.48625 -31.03515625 40.1875 C-30.59042969 40.826875 -30.14570312 41.46625 -29.6875 42.125 C-26.9937448 42.59716383 -24.76162666 42.81927756 -22.0625 42.875 C-19.62875 42.9575 -17.195 43.04 -14.6875 43.125 C-14.6875 37.185 -14.6875 31.245 -14.6875 25.125 C-17.575 25.186875 -20.4625 25.24875 -23.4375 25.3125 C-24.79246582 25.32253052 -24.79246582 25.32253052 -26.17480469 25.33276367 C-31.17961542 25.48158357 -31.17961542 25.48158357 -35.015625 28.55078125 C-35.56734375 29.40027344 -36.1190625 30.24976562 -36.6875 31.125 C-41.1965449 34.13409731 -46.48944767 34.08510202 -51.6875 33.125 C-54.67446661 31.30437273 -56.25145684 29.2994112 -57.6875 26.125 C-58.73793275 21.34429033 -58.1490167 18.06512661 -56 13.6875 C-52.59100431 9.90996424 -50.23586891 9.29391297 -45.25 8.75 C-40.96785114 9.20075251 -38.99693627 10.41727941 -35.6875 13.125 C-35.32527344 13.82625 -34.96304688 14.5275 -34.58984375 15.25 C-32.29692819 17.50995784 -31.58733864 17.42151032 -28.45703125 17.515625 C-26.80423599 17.48907407 -25.15167337 17.44142461 -23.5 17.375 C-22.2325293 17.34792969 -22.2325293 17.34792969 -20.93945312 17.3203125 C-18.85498427 17.27320586 -16.77109856 17.20146233 -14.6875 17.125 C-14.5342627 16.180802 -14.5342627 16.180802 -14.37792969 15.2175293 C-13.3908062 9.4255121 -11.83948149 6.27698149 -7.6875 2.125 C-4.48369983 -0.01086678 -3.66810033 -0.10632175 0 0 Z M-45.6875 16.125 C-47.3375 17.775 -48.9875 19.425 -50.6875 21.125 C-49.5499438 23.71641286 -49.5499438 23.71641286 -47.6875 26.125 C-45.14459375 26.70850505 -45.14459375 26.70850505 -42.6875 26.125 C-40.47892762 24.29713728 -40.47892762 24.29713728 -40.25 21.6875 C-40.42333949 18.87200141 -40.42333949 18.87200141 -43.1875 17.3125 C-44.0125 16.920625 -44.8375 16.52875 -45.6875 16.125 Z M-42.6875 41.125 C-44.0075 42.445 -45.3275 43.765 -46.6875 45.125 C-45.59965032 48.37483135 -45.59965032 48.37483135 -43.6875 51.125 C-41.22957971 51.45843551 -41.22957971 51.45843551 -38.6875 51.125 C-36.43587398 48.37028606 -36.43587398 48.37028606 -36.75 45.5625 C-37.47235233 42.87556378 -37.47235233 42.87556378 -40.25 41.8125 C-41.4565625 41.4721875 -41.4565625 41.4721875 -42.6875 41.125 Z " fill="#535353" transform="translate(63.6875,46.875)"/>
<path d="M0 0 C1.98 0 3.96 0 6 0 C6 5.94 6 11.88 6 18 C9.465 17.505 9.465 17.505 13 17 C14.60907108 14.62387135 14.60907108 14.62387135 16 12 C20.07197165 9.37584049 23.18003523 8.3114336 28 9 C32.03724943 10.52690844 34.48644484 12.27781306 37 15.8125 C38.24778281 19.7898077 38.14550631 21.9907279 37 26 C34.79595506 29.58054884 32.12434917 32.78695613 28 34 C23.71738649 34.47584595 21.52559976 34.27767535 17.6875 32.25 C15 30 15 30 14.0625 27.8125 C13.711875 27.214375 13.36125 26.61625 13 26 C10.69 25.67 8.38 25.34 6 25 C6 30.94 6 36.88 6 43 C9.06633164 42.99398168 12.12257941 42.94653717 15.1875 42.875 C16.05181641 42.87757812 16.91613281 42.88015625 17.80664062 42.8828125 C22.5774618 42.81897696 22.5774618 42.81897696 26.66308594 40.65478516 C28.1873268 38.85524156 28.1873268 38.85524156 30 36 C33.47238187 33.45358663 36.79212007 33.56470208 41 34 C44.64450372 35.82225186 46.59278629 37.42201925 48.9375 40.75 C50.24970514 44.76380395 50.32017027 48.02367877 49 52 C47.16831486 54.9549485 45.1633409 57.41832955 42 59 C37.97289888 59.64794499 34.43716038 59.84923113 30.8515625 57.73046875 C29.06823345 56.23465602 27.4606839 54.81293886 26 53 C26 52.34 26 51.68 26 51 C24.72382813 51.01160156 23.44765625 51.02320313 22.1328125 51.03515625 C20.46354313 51.04453417 18.79427217 51.05363437 17.125 51.0625 C16.28324219 51.07087891 15.44148438 51.07925781 14.57421875 51.08789062 C13.76855469 51.09111328 12.96289062 51.09433594 12.1328125 51.09765625 C11.01737061 51.10551147 11.01737061 51.10551147 9.87939453 51.11352539 C8 51 8 51 6 50 C5.99742187 50.56847656 5.99484375 51.13695312 5.9921875 51.72265625 C5.7128535 57.30002504 4.58894759 60.53335582 0.67578125 64.55859375 C-3.67262875 68.29883452 -7.32361773 69.40545588 -13 69 C-13 66.69 -13 64.38 -13 62 C-12.45730469 61.82984375 -11.91460937 61.6596875 -11.35546875 61.484375 C-5.6457142 59.60262557 -5.6457142 59.60262557 -2 55 C-1.05600328 51.91699033 -0.85041302 49.08098001 -0.79467773 45.86425781 C-0.77473251 44.84350159 -0.75478729 43.82274536 -0.73423767 42.77105713 C-0.70916893 41.12868073 -0.70916893 41.12868073 -0.68359375 39.453125 C-0.6524221 37.76361725 -0.6524221 37.76361725 -0.62062073 36.03997803 C-0.55525667 32.44338051 -0.49630115 28.84671023 -0.4375 25.25 C-0.3943023 22.8111904 -0.3506876 20.37238816 -0.30664062 17.93359375 C-0.1995887 11.955806 -0.09779783 5.97794593 0 0 Z M24 16 C21.85432087 17.72855926 21.85432087 17.72855926 20 20 C20.17753613 23.01811422 20.83735215 23.83735215 23 26 C26.30683466 25.71016731 26.30683466 25.71016731 29 24 C29.04080783 22.00041636 29.04254356 19.99954746 29 18 C26.525 17.01 26.525 17.01 24 16 Z M33.1875 43.5 C32.795625 43.995 32.40375 44.49 32 45 C32.62533375 47.52363988 32.62533375 47.52363988 34 50 C36.39351495 51.16210219 36.39351495 51.16210219 39 51 C41 50 41 50 42 48 C41.75794651 44.68181015 41.75794651 44.68181015 40 42 C36.27846731 41.60727943 36.27846731 41.60727943 33.1875 43.5 Z " fill="#323232" transform="translate(138,72)"/>
<path d="M0 0 C0.92453476 -0.00945648 1.84906952 -0.01891296 2.80162048 -0.02865601 C4.2892263 -0.01954697 4.2892263 -0.01954697 5.80688477 -0.01025391 C6.83258072 -0.01312408 7.85827667 -0.01599426 8.91505432 -0.01895142 C11.08286084 -0.02099163 13.25068579 -0.0154648 15.41845703 -0.00292969 C18.73259801 0.01310765 22.04551638 -0.00277188 25.35961914 -0.02197266 C27.4670437 -0.0199899 29.57446751 -0.01614554 31.68188477 -0.01025391 C32.67159775 -0.0163266 33.66131073 -0.02239929 34.68101501 -0.02865601 C43.68480502 0.06312515 43.68480502 0.06312515 47.31079102 3.38818359 C51.44871595 8.96569509 51.90462607 13.41078584 51.84204102 20.23193359 C51.84778137 21.62381897 51.84778137 21.62381897 51.8536377 23.04382324 C51.85634805 24.99700003 51.84904856 26.95021366 51.83227539 28.90332031 C51.81085299 31.87957283 51.83210676 34.8534117 51.85766602 37.82958984 C51.85502258 39.73454305 51.84989729 41.63949476 51.84204102 43.54443359 C51.85013794 44.42691772 51.85823486 45.30940186 51.86657715 46.21862793 C51.77813003 52.09541601 50.84153935 55.6290858 47.31079102 60.38818359 C42.86506736 64.44702906 37.45321948 63.85576598 31.75219727 63.85693359 C30.21933327 63.86835388 30.21933327 63.86835388 28.65550232 63.88000488 C26.49789875 63.89079295 24.34024302 63.89366426 22.18261719 63.88916016 C18.88786466 63.88818789 15.59544184 63.92982476 12.30102539 63.97412109 C10.20142086 63.97932842 8.10180825 63.98201628 6.00219727 63.98193359 C5.02078262 63.99832886 4.03936798 64.01472412 3.0282135 64.03161621 C-1.39992443 63.98703983 -4.66941212 63.90820034 -8.23242188 61.10107422 C-11.566063 57.41992346 -12.93069358 54.86756296 -12.97973633 49.8984375 C-12.99887589 48.57653915 -12.99887589 48.57653915 -13.0184021 47.22793579 C-13.02062775 46.28308319 -13.02285339 45.33823059 -13.02514648 44.36474609 C-13.03180328 43.3858139 -13.03846008 42.40688171 -13.0453186 41.39828491 C-13.0554363 39.32885617 -13.0601359 37.25939486 -13.05981445 35.18994141 C-13.06418363 32.03151391 -13.10050199 28.87448856 -13.13842773 25.71630859 C-13.14429694 23.70329253 -13.14826564 21.69026984 -13.15014648 19.67724609 C-13.17170303 18.26603989 -13.17170303 18.26603989 -13.19369507 16.82632446 C-13.15452563 11.17637281 -12.55137064 7.81239208 -8.68920898 3.38818359 C-5.74189595 0.77777108 -3.92705838 0.01155756 0 0 Z M-4.74804688 8.36108398 C-7.3981634 12.49374588 -7.37767497 15.6357605 -7.28295898 20.45068359 C-7.28299927 21.31959229 -7.28303955 22.18850098 -7.28308105 23.08374023 C-7.27773293 24.91608943 -7.26018035 26.74843858 -7.23120117 28.58056641 C-7.18934433 31.379134 -7.19013509 34.17529318 -7.19702148 36.97412109 C-7.18652813 38.75799192 -7.17358923 40.54185038 -7.15795898 42.32568359 C-7.15775757 43.15914307 -7.15755615 43.99260254 -7.15734863 44.85131836 C-7.06311836 49.49603581 -6.70279654 52.6184327 -3.68920898 56.38818359 C-0.29592535 58.08482541 3.56438995 57.59478443 7.29907227 57.62646484 C8.19442184 57.63453659 9.08977142 57.64260834 10.01225281 57.65092468 C11.90951601 57.66476789 13.80680414 57.67548899 15.70410156 57.68334961 C18.60147495 57.70055405 21.4977048 57.74443637 24.39477539 57.78857422 C26.23786596 57.79870192 28.08096622 57.80721778 29.92407227 57.81396484 C30.78881668 57.83147293 31.6535611 57.84898102 32.54450989 57.86701965 C36.35483249 57.85332541 38.8686876 57.59464256 42.3581543 55.96508789 C45.32154466 52.05428703 45.0096256 48.51776166 44.93969727 43.73193359 C44.94210922 42.79265015 44.94452118 41.8533667 44.94700623 40.88562012 C44.94602775 38.90189385 44.93263406 36.9181403 44.90771484 34.93457031 C44.87340909 31.898633 44.88705458 28.86560673 44.90649414 25.82958984 C44.89959556 23.90119204 44.88992307 21.97280175 44.87719727 20.04443359 C44.88215714 19.13705444 44.887117 18.22967529 44.89222717 17.2947998 C44.82294918 13.5865216 44.70253357 11.08308071 42.86303711 7.82006836 C38.95592829 5.62806595 35.32039211 5.79697742 30.90844727 5.82177734 C29.99373154 5.81557877 29.07901581 5.80938019 28.13658142 5.80299377 C26.20418359 5.79589751 24.27172459 5.79906626 22.33935547 5.81176758 C19.3866282 5.82562102 16.43707813 5.79157616 13.48461914 5.75341797 C11.60506107 5.75246662 9.72549905 5.75432645 7.84594727 5.75927734 C6.96560318 5.74601913 6.08525909 5.73276093 5.17823792 5.71910095 C1.00126638 5.78235798 -1.17015451 6.05340195 -4.74804688 8.36108398 Z " fill="#FA685C" transform="translate(77.689208984375,61.61181640625)"/>
<path d="M0 0 C3.12578143 1.6720747 5.39281175 3.7856235 7 7 C7.52447771 11.85786729 7.70864378 15.75987339 5.25 20.0625 C3 22 3 22 -1 23 C-1 29.27 -1 35.54 -1 42 C1.64 42.66 4.28 43.32 7 44 C10.94097493 46.48343975 14.14360037 49.53698397 16.5 53.5625 C17.08821422 56.43004433 17.1357716 59.0809107 17 62 C15.02 62 13.04 62 11 62 C10.65388672 61.18595703 10.65388672 61.18595703 10.30078125 60.35546875 C9.97464844 59.64003906 9.64851563 58.92460938 9.3125 58.1875 C8.99925781 57.47980469 8.68601563 56.77210937 8.36328125 56.04296875 C6.58738184 53.3816639 4.84727124 52.44353984 2 51 C-0.67809275 50.53528139 -0.67809275 50.53528139 -3.5246582 50.56762695 C-5.14577263 50.53793571 -5.14577263 50.53793571 -6.79963684 50.50764465 C-7.9550145 50.50125473 -9.11039215 50.49486481 -10.30078125 50.48828125 C-11.49229294 50.47033005 -12.68380463 50.45237885 -13.91142273 50.43388367 C-17.71174598 50.37976309 -21.51194348 50.34587824 -25.3125 50.3125 C-27.89129354 50.2793286 -30.47007049 50.24483911 -33.04882812 50.20898438 C-39.36577267 50.12403537 -45.68273344 50.05569264 -52 50 C-52 49.67 -52 49.34 -52 49 C-35.5 49 -19 49 -2 49 C-2 40.75 -2 32.5 -2 24 C-3.98 24 -5.96 24 -8 24 C-8 30.27 -8 36.54 -8 43 C-8.99 42.505 -8.99 42.505 -10 42 C-10 35.73 -10 29.46 -10 23 C-11.32 22.34 -12.64 21.68 -14 21 C-16.36881523 18.37509664 -17.87470085 16.36865226 -18.203125 12.78125 C-17.94389265 8.46071081 -17.34833672 6.42872212 -14.5625 3 C-9.92946989 -0.6160235 -5.76162328 -0.81174478 0 0 Z M-9 8 C-10.14203952 12.09542781 -10.14203952 12.09542781 -8.875 15.9375 C-6.98761427 17.21055745 -6.98761427 17.21055745 -4.4375 17 C-1.79930346 16.20004009 -1.79930346 16.20004009 -0.5625 13.625 C-0.376875 12.75875 -0.19125 11.8925 0 11 C-1.63167016 7.92881969 -1.63167016 7.92881969 -3.9375 7.25 C-6.19471983 6.82708086 -6.19471983 6.82708086 -9 8 Z " fill="#686868" transform="translate(127,3)"/>
<path d="M0 0 C3.62531608 1.8741654 5.69121639 4.07364917 7 8 C7.39504158 12.81950724 7.462422 15.09167107 5.25 19.4375 C3 22 3 22 -1 23 C-1 29.27 -1 35.54 -1 42 C0.485 42.495 0.485 42.495 2 43 C0.68 43 -0.64 43 -2 43 C-2 45.31 -2 47.62 -2 50 C-4.31 50 -6.62 50 -9 50 C-9 48.35 -9 46.7 -9 45 C-10.98 44.67 -12.96 44.34 -15 44 C-11.25 42 -11.25 42 -9 42 C-9.33 35.73 -9.66 29.46 -10 23 C-12.475 22.01 -12.475 22.01 -15 21 C-18.12855488 16.72430832 -18.41332348 13.19144187 -17.65234375 8.12109375 C-16.63291033 4.80640904 -14.68014781 3.09182268 -12 1 C-8.27287842 -0.86356079 -4.0579268 -0.56549975 0 0 Z " fill="#F9867D" transform="translate(77,3)"/>
<path d="M0 0 C3.64450372 1.82225186 5.59278629 3.42201925 7.9375 6.75 C9.27927006 10.85423785 9.2572166 13.88006723 8 18 C5.85293084 21.40569591 3.89582897 23.80960782 0 25 C-6.61158673 25.86709334 -6.61158673 25.86709334 -10.0390625 23.7265625 C-12.49020372 21.65872732 -14.55617641 19.88764718 -16 17 C-24.25 16.67 -32.5 16.34 -41 16 C-41 13.69 -41 11.38 -41 9 C-32.31126982 8.10884819 -23.73139464 7.88375362 -15 8 C-14.72542969 7.21238281 -14.45085937 6.42476562 -14.16796875 5.61328125 C-13 3 -13 3 -10.3125 1.1875 C-6.50659111 -0.17688243 -4.01519512 -0.50189939 0 0 Z " fill="#FA8077" transform="translate(179,56)"/>
<path d="M0 0 C5.61 0 11.22 0 17 0 C17 6.27 17 12.54 17 19 C18.98 19 20.96 19 23 19 C23 21.31 23 23.62 23 26 C21.02 26 19.04 26 17 26 C16.67 27.32 16.34 28.64 16 30 C16 29.01 16 28.02 16 27 C11.36943178 27.10961251 11.36943178 27.10961251 7.4921875 29.3671875 C6.28499658 30.87798332 5.13937638 32.43742668 4 34 C0.23225388 35.88387306 -3.91976821 35.78730353 -8 35 C-11.19026068 32.56750583 -13.21962967 29.56074067 -15 26 C-15.37766377 20.99595502 -15.11200434 18.00114844 -12 14 C-8.93071917 10.69462065 -5.5065089 10.27772083 -1.17578125 9.9375 C3.37430234 10.06820258 5.55661421 12.53498563 8.5625 15.6875 C10.9236558 18.45884029 10.9236558 18.45884029 15 18 C15.33 12.72 15.66 7.44 16 2 C13.73125 1.979375 11.4625 1.95875 9.125 1.9375 C7.21074219 1.92009766 7.21074219 1.92009766 5.2578125 1.90234375 C2.11335348 1.76823431 2.11335348 1.76823431 0 3 C0 2.01 0 1.02 0 0 Z " fill="#F07F75" transform="translate(33,96)"/>
<path d="M0 0 C1.98 0 3.96 0 6 0 C6.92773438 2.5390625 6.92773438 2.5390625 7.85546875 5.078125 C9.62387141 8.04759295 10.9680526 9.18894626 14 11 C18.16625535 11.62855042 22.31211705 11.60498393 26.51953125 11.609375 C27.73323898 11.62591125 28.94694672 11.64244751 30.19743347 11.65948486 C34.06917351 11.70802083 37.94052058 11.72934944 41.8125 11.75 C44.43947295 11.77815481 47.06642756 11.80808153 49.69335938 11.83984375 C56.12883478 11.91378166 62.56419941 11.96539147 69 12 C69 14.31 69 16.62 69 19 C65.48262679 20.17245774 62.6424868 20.13266285 58.9375 20.125 C57.68839844 20.12757813 56.43929687 20.13015625 55.15234375 20.1328125 C52 20 52 20 50 19 C50 24.28 50 29.56 50 35 C47.03 34.505 47.03 34.505 44 34 C44 29.05 44 24.1 44 19 C41.79441406 19.06960937 39.58882812 19.13921875 37.31640625 19.2109375 C35.15182661 19.25788948 32.98730624 19.29422891 30.82250977 19.32958984 C29.33168658 19.35954481 27.84103632 19.40032569 26.35083008 19.45263672 C18.11020995 19.73441454 11.36711298 19.91766231 4.58789062 14.53125 C1.78947309 11.83265301 0.14736005 9.8770864 -0.1640625 5.91015625 C-0.18484318 3.93945483 -0.10008143 1.96826818 0 0 Z " fill="#4C4C4C" transform="translate(50,122)"/>
<path d="M0 0 C1.98 0 3.96 0 6 0 C6.07476562 0.95261719 6.14953125 1.90523437 6.2265625 2.88671875 C6.69010863 9.80832425 6.69010863 9.80832425 9.43359375 15.97265625 C11.2145499 17.42508183 11.2145499 17.42508183 14 19 C15.72589785 22.45179569 15.36043965 26.21866039 15 30 C13.699544 33.14847243 12.4485648 34.61740061 9.875 36.8125 C5.82946019 38.48348384 2.31058373 38.81202898 -2 38 C-5.38569936 36.25693868 -7.49809631 33.88973835 -9.375 30.5625 C-10.53395506 25.81078425 -10.6144137 23.10170733 -8.1875 18.75 C-6 16 -6 16 -3 14 C-2.26393501 10.43230448 -2.26393501 10.43230448 -2 7 C-1.34 7 -0.68 7 0 7 C0 4.69 0 2.38 0 0 Z " fill="#FA7B71" transform="translate(119,134)"/>
<path d="M0 0 C6.27 0 12.54 0 19 0 C19 4.95 19 9.9 19 15 C21.97 15.495 21.97 15.495 25 16 C25 10.72 25 5.44 25 0 C25.33 0 25.66 0 26 0 C26 5.28 26 10.56 26 16 C27.65 16.66 29.3 17.32 31 18 C34.17088925 21.60825328 34.56925511 25.13284379 34.4296875 29.77734375 C33.69387346 33.58350909 31.77545759 35.35670706 29 38 C25.27533151 39.86233425 21.05504687 39.57130829 17 39 C13.87421857 37.3279253 11.60718825 35.2143765 10 32 C9.48487383 27.90842645 9.05632731 23.76410454 11.046875 20.04296875 C12.81398622 17.90684313 14.50898341 16.24550829 17 15 C17.47001033 11.72444392 17.47001033 11.72444392 17.625 7.9375 C17.810625 4.5034375 17.810625 4.5034375 18 1 C12.39 1 6.78 1 1 1 C1.33 7.27 1.66 13.54 2 20 C1.34 20 0.68 20 0 20 C0 13.4 0 6.8 0 0 Z M18 23 C17.67 24.98 17.34 26.96 17 29 C18.67488528 30.73647948 18.67488528 30.73647948 21 32 C23.74303573 31.58612501 23.74303573 31.58612501 26 30 C27.24774386 28.17576488 27.24774386 28.17576488 27 26 C25.27062171 23.68721883 25.27062171 23.68721883 23 22 C20.78918149 21.89459074 20.78918149 21.89459074 18 23 Z " fill="#676767" transform="translate(75,141)"/>
<path d="M0 0 C3.12948288 2.70273522 4.46485486 4.4439678 5.75 8.375 C5.75 13.2051229 5.35896787 16.04283501 2.3125 19.8125 C-0.74204658 22.86704658 -2.24669532 23.57446806 -6.4375 23.8125 C-11.26833089 23.78904936 -13.59050941 22.1165626 -17.03515625 18.8828125 C-18.25 17.375 -18.25 17.375 -18.25 15.375 C-19.52617187 15.39820312 -20.80234375 15.42140625 -22.1171875 15.4453125 C-23.7864525 15.46406829 -25.4557238 15.48226869 -27.125 15.5 C-28.38763672 15.52513672 -28.38763672 15.52513672 -29.67578125 15.55078125 C-30.88427734 15.56044922 -30.88427734 15.56044922 -32.1171875 15.5703125 C-32.86081543 15.58078613 -33.60444336 15.59125977 -34.37060547 15.60205078 C-36.25 15.375 -36.25 15.375 -38.25 13.375 C-31.98 13.375 -25.71 13.375 -19.25 13.375 C-19.25 11.725 -19.25 10.075 -19.25 8.375 C-20.57 8.045 -21.89 7.715 -23.25 7.375 C-22.4146875 7.313125 -22.4146875 7.313125 -21.5625 7.25 C-18.09456112 5.93780691 -16.56151056 3.20660043 -14.25 0.375 C-9.76798203 -2.91181318 -4.79423843 -2.39711921 0 0 Z M-11.0625 7.875 C-11.454375 8.37 -11.84625 8.865 -12.25 9.375 C-11.62466625 11.89863988 -11.62466625 11.89863988 -10.25 14.375 C-7.85648505 15.53710219 -7.85648505 15.53710219 -5.25 15.375 C-3.25 14.375 -3.25 14.375 -2.25 12.375 C-2.49205349 9.05681015 -2.49205349 9.05681015 -4.25 6.375 C-7.97153269 5.98227943 -7.97153269 5.98227943 -11.0625 7.875 Z " fill="#5E5E5E" transform="translate(182.25,107.625)"/>
<path d="M0 0 C3.28210708 1.64794872 5.01509727 3.08812507 7.171875 6.12109375 C8.41965781 10.09840145 8.31738131 12.29932165 7.171875 16.30859375 C4.96783006 19.88914259 2.29622417 23.09554988 -1.828125 24.30859375 C-6.11073851 24.7844397 -8.30252524 24.5862691 -12.140625 22.55859375 C-14.828125 20.30859375 -14.828125 20.30859375 -15.765625 18.12109375 C-16.11625 17.52296875 -16.466875 16.92484375 -16.828125 16.30859375 C-20.39019161 15.4898919 -20.39019161 15.4898919 -23.828125 15.30859375 C-23.828125 14.97859375 -23.828125 14.64859375 -23.828125 14.30859375 C-21.518125 14.30859375 -19.208125 14.30859375 -16.828125 14.30859375 C-16.828125 12.65859375 -16.828125 11.00859375 -16.828125 9.30859375 C-19.138125 9.30859375 -21.448125 9.30859375 -23.828125 9.30859375 C-23.828125 8.97859375 -23.828125 8.64859375 -23.828125 8.30859375 C-22.735 8.24671875 -21.641875 8.18484375 -20.515625 8.12109375 C-16.7112965 7.73238847 -16.7112965 7.73238847 -15.265625 4.93359375 C-14.79125 4.06734375 -14.316875 3.20109375 -13.828125 2.30859375 C-9.26732062 -0.6305913 -5.24634064 -1.98419294 0 0 Z M-5.828125 6.30859375 C-7.97380413 8.03715301 -7.97380413 8.03715301 -9.828125 10.30859375 C-9.65058887 13.32670797 -8.99077285 14.1459459 -6.828125 16.30859375 C-3.52129034 16.01876106 -3.52129034 16.01876106 -0.828125 14.30859375 C-0.78731717 12.30901011 -0.78558144 10.30814121 -0.828125 8.30859375 C-3.303125 7.31859375 -3.303125 7.31859375 -5.828125 6.30859375 Z " fill="#575757" transform="translate(167.828125,81.69140625)"/>
<path d="M0 0 C1.98 0 3.96 0 6 0 C6 8.25 6 16.5 6 25 C-10.5 25 -27 25 -44 25 C-44 23.02 -44 21.04 -44 19 C-29.48 19 -14.96 19 0 19 C0 12.73 0 6.46 0 0 Z " fill="#353535" transform="translate(119,27)"/>
<path d="M0 0 C2.7819423 2.52903845 3.37634453 4.16976048 4.0625 7.875 C4.20376206 12.58650534 3.7059353 15.87871308 1.125 19.875 C-3.13758495 22.65872895 -6.89521518 23.13293866 -11.9375 22.875 C-15.77148833 21.62478641 -17.34713501 19.60300449 -19.375 16.25 C-21.26207644 12.11676781 -21.03057016 9.10139801 -19.77734375 4.79296875 C-18.65178868 2.22251509 -17.45421398 1.09522496 -14.9375 -0.125 C-9.92349222 -1.79633593 -4.95606696 -1.8980682 0 0 Z M-8.9375 4.875 C-10.2575 6.195 -11.5775 7.515 -12.9375 8.875 C-11.84965032 12.12483135 -11.84965032 12.12483135 -9.9375 14.875 C-7.47957971 15.20843551 -7.47957971 15.20843551 -4.9375 14.875 C-2.68587398 12.12028606 -2.68587398 12.12028606 -3 9.3125 C-3.72235233 6.62556378 -3.72235233 6.62556378 -6.5 5.5625 C-7.7065625 5.2221875 -7.7065625 5.2221875 -8.9375 4.875 Z " fill="#515151" transform="translate(29.9375,83.125)"/>
<path d="M0 0 C1.65 0 3.3 0 5 0 C6 1 6 1 6.12025452 2.98048401 C6.1169236 4.2828727 6.1169236 4.2828727 6.11352539 5.61157227 C6.11344986 6.59251358 6.11337433 7.5734549 6.11329651 8.5841217 C6.10813522 9.6507756 6.10297394 10.7174295 6.09765625 11.81640625 C6.0962413 12.9025975 6.09482635 13.98878876 6.09336853 15.1078949 C6.08775048 18.59279075 6.07519492 22.07762342 6.0625 25.5625 C6.05748733 27.91861887 6.05292402 30.27473874 6.04882812 32.63085938 C6.03777519 38.42059464 6.02101951 44.21029281 6 50 C4.02 50 2.04 50 0 50 C0 43.73 0 37.46 0 31 C-5.28 31 -10.56 31 -16 31 C-16 29.35 -16 27.7 -16 26 C-10.72 26 -5.44 26 0 26 C0 17.42 0 8.84 0 0 Z " fill="#343434" transform="translate(50,65)"/>
<path d="M0 0 C10.23 0 20.46 0 31 0 C31 7.26 31 14.52 31 22 C29.02 21.67 27.04 21.34 25 21 C25 16.05 25 11.1 25 6 C16.75 6 8.5 6 0 6 C0 4.02 0 2.04 0 0 Z " fill="#353535" transform="translate(69,135)"/>
<path d="M0 0 C4.18136125 -0.60978185 7.59513707 -0.8414915 11.30859375 1.3828125 C14.90229907 4.42921958 18.02329936 7.23858439 19 12 C19.125 15.3125 19.125 15.3125 19 18 C17.02 18 15.04 18 13 18 C12.76925781 17.45730469 12.53851563 16.91460937 12.30078125 16.35546875 C11.81158203 15.28232422 11.81158203 15.28232422 11.3125 14.1875 C10.99925781 13.47980469 10.68601563 12.77210937 10.36328125 12.04296875 C8.58738184 9.3816639 6.84727124 8.44353984 4 7 C1.32190725 6.53528139 1.32190725 6.53528139 -1.5246582 6.56762695 C-3.14577263 6.53793571 -3.14577263 6.53793571 -4.79963684 6.50764465 C-5.9550145 6.50125473 -7.11039215 6.49486481 -8.30078125 6.48828125 C-9.49229294 6.47033005 -10.68380463 6.45237885 -11.91142273 6.43388367 C-15.71174598 6.37976309 -19.51194348 6.34587824 -23.3125 6.3125 C-25.89129354 6.2793286 -28.47007049 6.24483911 -31.04882812 6.20898438 C-37.36577267 6.12403537 -43.68273344 6.05569264 -50 6 C-50 5.67 -50 5.34 -50 5 C-33.5 5 -17 5 0 5 C0 3.35 0 1.7 0 0 Z " fill="#4D4D4D" transform="translate(125,47)"/>
<path d="M0 0 C1.98 0 3.96 0 6 0 C6 6.27 6 12.54 6 19 C8.31 19 10.62 19 13 19 C13 20.65 13 22.3 13 24 C8.71 24 4.42 24 0 24 C0 16.08 0 8.16 0 0 Z " fill="#323232" transform="translate(138,72)"/>
<path d="M0 0 C1.98 0 3.96 0 6 0 C5.97204759 6.1635059 5.02965928 10.08002231 0.67578125 14.55859375 C-3.67262875 18.29883452 -7.32361773 19.40545588 -13 19 C-13 16.69 -13 14.38 -13 12 C-12.18595703 11.74476563 -12.18595703 11.74476563 -11.35546875 11.484375 C-5.65644924 9.59155928 -5.65644924 9.59155928 -2 5 C-1.28837557 3.35202764 -0.60968047 1.68834592 0 0 Z " fill="#4C4C4C" transform="translate(138,122)"/>
<path d="M0 0 C1.21236328 0.02707031 1.21236328 0.02707031 2.44921875 0.0546875 C3.37154297 0.08949219 3.37154297 0.08949219 4.3125 0.125 C4.6425 1.775 4.9725 3.425 5.3125 5.125 C4.78140625 5.34414063 4.2503125 5.56328125 3.703125 5.7890625 C-2.87463202 8.74185123 -5.6763331 12.60080504 -8.6875 19.125 C-10.3375 18.795 -11.9875 18.465 -13.6875 18.125 C-14.25127536 12.86309662 -14.07500139 10.06407594 -10.875 5.75 C-7.64862882 1.750893 -5.24031024 -0.15189305 0 0 Z " fill="#4B4A4A" transform="translate(63.6875,46.875)"/>
<path d="M0 0 C14.52 0 29.04 0 44 0 C44 2.31 44 4.62 44 7 C40.48262679 8.17245774 37.6424868 8.13266285 33.9375 8.125 C32.68839844 8.12757813 31.43929687 8.13015625 30.15234375 8.1328125 C27 8 27 8 25 7 C25 5.02 25 3.04 25 1 C16.75 1 8.5 1 0 1 C0 0.67 0 0.34 0 0 Z " fill="#545151" transform="translate(75,134)"/>
<path d="M0 0 C1.98 0 3.96 0 6 0 C6 8.58 6 17.16 6 26 C3.69 26 1.38 26 -1 26 C-0.67 17.42 -0.34 8.84 0 0 Z " fill="#FA6559" transform="translate(69,27)"/>
<path d="M0 0 C8.25 0.33 16.5 0.66 25 1 C25 2.65 25 4.3 25 6 C12.625 6.495 12.625 6.495 0 7 C0 4.69 0 2.38 0 0 Z " fill="#FA6559" transform="translate(138,65)"/>
<path d="M0 0 C1.98 0 3.96 0 6 0 C6 6.27 6 12.54 6 19 C4.02 19 2.04 19 0 19 C0 12.73 0 6.46 0 0 Z " fill="#353535" transform="translate(50,96)"/>
<path d="M0 0 C6.27 0 12.54 0 19 0 C19 1.98 19 3.96 19 6 C12.73 6 6.46 6 0 6 C0 4.02 0 2.04 0 0 Z " fill="#353535" transform="translate(100,46)"/>
<path d="M0 0 C2.41674224 -0.02705308 4.8331794 -0.04686438 7.25 -0.0625 C7.93191406 -0.07087891 8.61382812 -0.07925781 9.31640625 -0.08789062 C12.69342554 -0.10428392 15.77291639 -0.05628768 19 1 C19 2.65 19 4.3 19 6 C12.73 6 6.46 6 0 6 C0 4.02 0 2.04 0 0 Z " fill="#353535" transform="translate(144,115)"/>
<path d="M0 0 C1.98 0 3.96 0 6 0 C6 5.28 6 10.56 6 16 C3.03 15.505 3.03 15.505 0 15 C0 10.05 0 5.1 0 0 Z " fill="#343434" transform="translate(94,141)"/>
<path d="M0 0 C2.4375 0.8125 2.4375 0.8125 4.4375 3.8125 C4.1133631 7.13490324 3.82973697 8.42026303 1.4375 10.8125 C-4.13068182 10.24431818 -4.13068182 10.24431818 -5.5625 8.8125 C-5.8125 5.375 -5.8125 5.375 -5.5625 1.8125 C-2.5625 -0.1875 -2.5625 -0.1875 0 0 Z " fill="#FEF8F8" transform="translate(122.5625,154.1875)"/>
<path d="M0 0 C0.928125 0.20625 1.85625 0.4125 2.8125 0.625 C3.4375 3.4375 3.4375 3.4375 3.8125 6.625 C2.8225 8.11 2.8225 8.11 1.8125 9.625 C-1.1875 9.9375 -1.1875 9.9375 -4.1875 9.625 C-6.1875 7.625 -6.1875 7.625 -6.5 4.625 C-6.396875 3.635 -6.29375 2.645 -6.1875 1.625 C-3.1875 -0.375 -3.1875 -0.375 0 0 Z " fill="#FEFBFB" transform="translate(73.1875,10.375)"/>
<path d="M0 0 C2.4375 0.8125 2.4375 0.8125 4.4375 3.8125 C3.89695946 8.35304054 3.89695946 8.35304054 2.4375 9.8125 C-1.0625 9.9375 -1.0625 9.9375 -4.5625 9.8125 C-5.5625 8.8125 -5.5625 8.8125 -5.8125 5.375 C-5.73 4.199375 -5.6475 3.02375 -5.5625 1.8125 C-2.5625 -0.1875 -2.5625 -0.1875 0 0 Z " fill="#FEFAFA" transform="translate(31.5625,113.1875)"/>
<path d="M0 0 C3 0.25 3 0.25 5 2.25 C5.375 4.6875 5.375 4.6875 5 7.25 C3.25 9.125 3.25 9.125 1 10.25 C-2.00388632 9.98495121 -2.83304275 9.41695725 -5 7.25 C-5.25 4.75 -5.25 4.75 -5 2.25 C-3 0.25 -3 0.25 0 0 Z " fill="#FEFBFA" transform="translate(175,63.75)"/>
<path d="M0 0 C2.31 0 4.62 0 7 0 C7 2.31 7 4.62 7 7 C4.69 7 2.38 7 0 7 C0 4.69 0 2.38 0 0 Z " fill="#E73B2E" transform="translate(49,115)"/>
<path d="M0 0 C1.98 0 3.96 0 6 0 C6 2.31 6 4.62 6 7 C3.69 7 1.38 7 -1 7 C-0.67 4.69 -0.34 2.38 0 0 Z " fill="#EE3C2E" transform="translate(69,46)"/>
<path d="M0 0 C1.98 0 3.96 0 6 0 C6 2.31 6 4.62 6 7 C4.02 7 2.04 7 0 7 C0 4.69 0 2.38 0 0 Z " fill="#F03B2D" transform="translate(119,134)"/>
<path d="M0 0 C1.98 0 3.96 0 6 0 C6 2.31 6 4.62 6 7 C4.02 7 2.04 7 0 7 C0 4.69 0 2.38 0 0 Z " fill="#060606" transform="translate(138,115)"/>
<path d="M0 0 C1.98 0 3.96 0 6 0 C6 2.31 6 4.62 6 7 C4.02 7 2.04 7 0 7 C0 4.69 0 2.38 0 0 Z " fill="#E63427" transform="translate(138,65)"/>
<path d="M0 0 C1.66611905 -0.042721 3.33382885 -0.04063832 5 0 C6 1 6 1 6.0625 4.0625 C6.041875 5.031875 6.02125 6.00125 6 7 C4.02 7 2.04 7 0 7 C0 4.69 0 2.38 0 0 Z " fill="#080808" transform="translate(50,65)"/>
<path d="M0 0 C1.98 0 3.96 0 6 0 C6 1.98 6 3.96 6 6 C4.02 6 2.04 6 0 6 C0 4.02 0 2.04 0 0 Z " fill="#030303" transform="translate(94,135)"/>
<path d="M0 0 C1.98 0 3.96 0 6 0 C6 1.98 6 3.96 6 6 C4.02 6 2.04 6 0 6 C0 4.02 0 2.04 0 0 Z " fill="#020202" transform="translate(69,135)"/>
<path d="M0 0 C1.98 0 3.96 0 6 0 C6 1.98 6 3.96 6 6 C4.02 6 2.04 6 0 6 C0 4.02 0 2.04 0 0 Z " fill="#030303" transform="translate(119,46)"/>
<path d="M0 0 C1.98 0 3.96 0 6 0 C6 1.98 6 3.96 6 6 C4.02 6 2.04 6 0 6 C0 4.02 0 2.04 0 0 Z " fill="#030303" transform="translate(94,46)"/>
<path d="M0 0 C2.31 0 4.62 0 7 0 C7 1.65 7 3.3 7 5 C4.69 5 2.38 5 0 5 C0 3.35 0 1.7 0 0 Z " fill="#343434" transform="translate(144,91)"/>
<path d="M0 0 C1.98 0 3.96 0 6 0 C6 1.65 6 3.3 6 5 C4.02 5 2.04 5 0 5 C0 3.35 0 1.7 0 0 Z " fill="#000000" transform="translate(138,91)"/>
<path d="M0 0 C1.98 0 3.96 0 6 0 C6 1.65 6 3.3 6 5 C4.02 5 2.04 5 0 5 C0 3.35 0 1.7 0 0 Z " fill="#020202" transform="translate(50,91)"/>
<path d="M0 0 C0.33 0 0.66 0 1 0 C1.61240935 7.2264303 1.61240935 7.2264303 -1.375 11 C-4 13 -4 13 -6 13 C-4.63016497 9.83884224 -4.0109362 9.0072908 -1 7 C-0.26393501 3.43230448 -0.26393501 3.43230448 0 0 Z " fill="#FDCDC9" transform="translate(117,141)"/>
<path d="M0 0 C0.99 0.33 1.98 0.66 3 1 C1.71034824 2.37562854 0.37310707 3.70766393 -1 5 C-1.66 5 -2.32 5 -3 5 C-3.33 5.66 -3.66 6.32 -4 7 C-3.43628586 3.73045798 -2.50037734 2.17424117 0 0 Z " fill="#FCABA4" transform="translate(23,108)"/>
</svg>
