<?xml version="1.0" encoding="UTF-8"?>
<svg version="1.1" xmlns="http://www.w3.org/2000/svg" width="116" height="118">
<path d="M0 0 C0.99118332 -0.0033284 1.98236664 -0.0066568 3.00358582 -0.01008606 C5.09556618 -0.0151357 7.18755456 -0.01749499 9.27954102 -0.01733398 C12.45928406 -0.01951671 15.63867779 -0.03768317 18.81835938 -0.05664062 C20.85807174 -0.05957581 22.89778574 -0.06155977 24.9375 -0.0625 C25.87841995 -0.06968552 26.8193399 -0.07687103 27.78877258 -0.08427429 C35.15338996 -0.05912391 43.06942514 0.1571811 48.98046875 5.04296875 C49.955 5.84734375 49.955 5.84734375 50.94921875 6.66796875 C51.51640625 7.16296875 52.08359375 7.65796875 52.66796875 8.16796875 C53.43109375 8.78671875 54.19421875 9.40546875 54.98046875 10.04296875 C60.32766332 16.77647302 60.12279298 24.4663643 60.1015625 32.6640625 C60.10680435 33.85218033 60.1120462 35.04029816 60.1174469 36.26441956 C60.12384846 38.76815004 60.12255441 41.27191067 60.11401367 43.77563477 C60.10550348 47.58990419 60.1342948 51.40267508 60.16601562 55.21679688 C60.16762791 57.65755164 60.16704958 60.09830903 60.1640625 62.5390625 C60.17529648 63.67057236 60.18653046 64.80208221 60.19810486 65.96788025 C60.12590687 74.23856137 58.27159904 79.92501568 53.98046875 86.91796875 C48.61918491 92.13435303 41.98118979 95.26553593 34.51318359 95.3449707 C33.46133881 95.35780594 32.40949402 95.37064117 31.32577515 95.38386536 C30.18830841 95.39125229 29.05084167 95.39863922 27.87890625 95.40625 C26.70590973 95.41432175 25.53291321 95.42239349 24.32437134 95.43070984 C21.83784462 95.44455106 19.3512989 95.45527304 16.86474609 95.46313477 C13.07872991 95.48030655 9.2935962 95.52418943 5.5078125 95.56835938 C3.08985016 95.57849008 0.6718804 95.587005 -1.74609375 95.59375 C-3.43407578 95.62001213 -3.43407578 95.62001213 -5.15615845 95.64680481 C-14.91960743 95.62012872 -22.36893122 93.13106878 -29.33203125 86.16796875 C-30.58203125 83.41796875 -30.58203125 83.41796875 -31.33203125 81.16796875 C-31.99203125 80.83796875 -32.65203125 80.50796875 -33.33203125 80.16796875 C-34.44651723 77.0424498 -34.47520714 74.0106541 -34.5090332 70.71606445 C-34.52186844 69.62425369 -34.53470367 68.53244293 -34.54792786 67.407547 C-34.55531479 66.23149399 -34.56270172 65.05544098 -34.5703125 63.84375 C-34.57838425 62.62777634 -34.58645599 61.41180267 -34.59477234 60.15898132 C-34.60860238 57.58427349 -34.61932936 55.00954741 -34.62719727 52.43481445 C-34.64438941 48.51282649 -34.68828508 44.59168603 -34.73242188 40.66992188 C-34.74255105 38.16537077 -34.75106645 35.66081251 -34.7578125 33.15625 C-34.77532059 31.99031815 -34.79282867 30.82438629 -34.81086731 29.62312317 C-34.78915694 21.40393519 -33.57822739 14.97165117 -28.1484375 8.609375 C-27.03275391 7.67931641 -27.03275391 7.67931641 -25.89453125 6.73046875 C-24.78271484 5.77333984 -24.78271484 5.77333984 -23.6484375 4.796875 C-16.50601869 -0.22570282 -8.39338111 0.00986317 0 0 Z M-17.33203125 24.16796875 C-19.11672577 27.73735779 -18.57884296 32.26071721 -18.5859375 36.2265625 C-18.7256779 40.2201959 -18.98119549 41.8225139 -21.87890625 44.67578125 C-22.6884375 45.16820313 -23.49796875 45.660625 -24.33203125 46.16796875 C-23.92800148 48.99617716 -23.56154453 49.97715248 -21.31640625 51.84375 C-18.55249351 55.08101 -18.86533611 57.40489344 -18.83203125 61.60546875 C-18.80462883 67.16450601 -18.80462883 67.16450601 -16.50390625 72.08984375 C-13.82561342 74.65252682 -11.97350226 74.91968664 -8.33203125 75.16796875 C-8.33203125 73.51796875 -8.33203125 71.86796875 -8.33203125 70.16796875 C-9.65203125 69.83796875 -10.97203125 69.50796875 -12.33203125 69.16796875 C-12.36941406 67.99878906 -12.40679687 66.82960937 -12.4453125 65.625 C-12.51099405 64.076792 -12.57744064 62.52861633 -12.64453125 60.98046875 C-12.66708984 60.21154297 -12.68964844 59.44261719 -12.71289062 58.65039062 C-12.93123653 54.02542727 -13.46949869 50.99746941 -16.33203125 47.16796875 C-15.85765625 46.77609375 -15.38328125 46.38421875 -14.89453125 45.98046875 C-11.63002672 42.1936435 -12.22136333 37.12409299 -12.26953125 32.35546875 C-12.27855469 31.19402344 -12.28757812 30.03257813 -12.296875 28.8359375 C-12.30847656 27.95550781 -12.32007813 27.07507813 -12.33203125 26.16796875 C-11.01203125 25.83796875 -9.69203125 25.50796875 -8.33203125 25.16796875 C-8.33203125 23.51796875 -8.33203125 21.86796875 -8.33203125 20.16796875 C-13.03272271 20.16796875 -13.97551778 21.08360502 -17.33203125 24.16796875 Z M34.66796875 20.16796875 C34.33796875 21.48796875 34.00796875 22.80796875 33.66796875 24.16796875 C34.31636719 24.49925781 34.96476562 24.83054687 35.6328125 25.171875 C38.17759976 27.66781797 38.13503433 29.45212633 38.22851562 32.92382812 C38.22916016 33.64376953 38.22980469 34.36371094 38.23046875 35.10546875 C38.18841349 41.72686189 38.18841349 41.72686189 41.66796875 47.16796875 C40.66796875 49.16796875 39.66796875 51.16796875 38.66796875 53.16796875 C38.50294965 56.36567227 38.37105347 59.55625873 38.32617188 62.7578125 C38.2421875 64.76171875 38.2421875 64.76171875 37.66796875 68.16796875 C35.625 69.63671875 35.625 69.63671875 33.66796875 70.16796875 C33.66796875 71.81796875 33.66796875 73.46796875 33.66796875 75.16796875 C36.95699857 74.86896604 39.14497911 74.54823949 41.84375 72.5859375 C44.96069145 68.45448834 44.10653141 63.80056674 44.1015625 58.796875 C44.79714646 54.34034054 46.33774803 53.0721706 49.66796875 50.16796875 C50.50130208 47.66796875 50.50130208 47.66796875 49.66796875 45.16796875 C48.42853516 44.08708984 48.42853516 44.08708984 47.1640625 42.984375 C43.95625156 39.36492009 44.1007358 37.37154706 44.10546875 32.60546875 C44.23458051 27.26599136 44.23458051 27.26599136 41.8125 22.75 C39.39964246 20.97002313 37.62451492 20.49647388 34.66796875 20.16796875 Z " fill="#1748FA" transform="translate(45.33203125,8.83203125)"/>
<path d="M0 0 C1.258125 -0.04125 2.51625 -0.0825 3.8125 -0.125 C4.52019531 -0.14820312 5.22789063 -0.17140625 5.95703125 -0.1953125 C8 0 8 0 11 2 C12.25433458 5.76300374 12.10695422 9.27210909 12.0625 13.1875 C12.05798828 13.93708984 12.05347656 14.68667969 12.04882812 15.45898438 C12.03706354 17.30602383 12.01912865 19.15302213 12 21 C11.67 21 11.34 21 11 21 C10.93941406 19.95199219 10.87882812 18.90398438 10.81640625 17.82421875 C10.73198262 16.44529952 10.64733553 15.06639395 10.5625 13.6875 C10.52318359 12.99720703 10.48386719 12.30691406 10.44335938 11.59570312 C10.25072585 8.52838465 9.97677283 5.93031848 9 3 C6.69 2.67 4.38 2.34 2 2 C2.27617533 3.94074861 2.27617533 3.94074861 3 6 C3.99 6.66 4.98 7.32 6 8 C6.30640508 10.68104447 6.46673058 13.18968239 6.5 15.875 C6.50193977 22.5300389 6.50193977 22.5300389 10 28 C9 30 8 32 7 34 C6.76827173 36.54615009 6.58105471 39.07396225 6.4375 41.625 C6.39431641 42.33140625 6.35113281 43.0378125 6.30664062 43.765625 C6.20055249 45.51018537 6.09977111 47.25506697 6 49 C4.35 49.66 2.7 50.32 1 51 C1 52.65 1 54.3 1 56 C3.97 55.505 3.97 55.505 7 55 C6.67 55.66 6.34 56.32 6 57 C4.02 57 2.04 57 0 57 C-1.31626692 53.38026598 -2 50.90432869 -2 47 C-3.485 47.495 -3.485 47.495 -5 48 C-4.45276317 44.62537285 -3.9451 42.91765 -2 40 C-2.71929687 40.49113281 -2.71929687 40.49113281 -3.453125 40.9921875 C-7.20479418 42.47674371 -10.75680741 42.21108873 -14.75 42.125 C-15.54277344 42.11597656 -16.33554687 42.10695312 -17.15234375 42.09765625 C-19.10169281 42.07417012 -21.05088575 42.03830137 -23 42 C-23 38.04 -23 34.08 -23 30 C-18.71 30 -14.42 30 -10 30 C-10 28.02 -10 26.04 -10 24 C-14.29 24 -18.58 24 -23 24 C-23 20.37 -23 16.74 -23 13 C-17.39 13 -11.78 13 -6 13 C-6 11.35 -6 9.7 -6 8 C-5.34 7.34 -4.68 6.68 -4 6 C-3.67 5.34 -3.34 4.68 -3 4 C-2.67 4.99 -2.34 5.98 -2 7 C-1.34 7 -0.68 7 0 7 C0 4.69 0 2.38 0 0 Z " fill="#1848F7" transform="translate(78,28)"/>
<path d="M0 0 C8.58 0 17.16 0 26 0 C26 1.98 26 3.96 26 6 C20.39 6 14.78 6 9 6 C9 9.63 9 13.26 9 17 C13.29 17 17.58 17 22 17 C22 18.98 22 20.96 22 23 C17.71 23 13.42 23 9 23 C9 26.96 9 30.92 9 35 C14.61 35 20.22 35 26 35 C26 36.98 26 38.96 26 41 C17.75 41 9.5 41 1 41 C0.67 27.47 0.34 13.94 0 0 Z " fill="#ECF5FE" transform="translate(46,35)"/>
<path d="M0 0 C0.66 0.33 1.32 0.66 2 1 C0.03887265 3.52144946 -1.89394493 5.89697508 -4.1875 8.125 C-7.38927733 11.43718345 -7.12242793 14.64302866 -7.11352539 19.03198242 C-7.11344986 20.27304245 -7.11337433 21.51410248 -7.11329651 22.79277039 C-7.10818991 24.14700358 -7.10297391 25.50123637 -7.09765625 26.85546875 C-7.09579083 28.24123585 -7.09436751 29.62700361 -7.09336853 31.01277161 C-7.0895531 34.6574791 -7.07973113 38.30214665 -7.06866455 41.94683838 C-7.0584295 45.66702738 -7.05386642 49.38722285 -7.04882812 53.10742188 C-7.03810798 60.40496611 -7.02104325 67.70247746 -7 75 C-6.34 75 -5.68 75 -5 75 C-5 75.99 -5 76.98 -5 78 C-3.515 77.505 -3.515 77.505 -2 77 C-1.01 80.465 -1.01 80.465 0 84 C-3.35620271 82.61122646 -5.07298728 81.08322035 -7 78 C-7 77.34 -7 76.68 -7 76 C-7.66 75.67 -8.32 75.34 -9 75 C-10.11448598 71.87448105 -10.14317589 68.84268535 -10.17700195 65.5480957 C-10.18983719 64.45628494 -10.20267242 63.36447418 -10.21589661 62.23957825 C-10.22328354 61.06352524 -10.23067047 59.88747223 -10.23828125 58.67578125 C-10.246353 57.45980759 -10.25442474 56.24383392 -10.26274109 54.99101257 C-10.27657113 52.41630474 -10.28729811 49.84157866 -10.29516602 47.2668457 C-10.31235816 43.34485774 -10.35625383 39.42371728 -10.40039062 35.50195312 C-10.4105198 32.99740202 -10.4190352 30.49284376 -10.42578125 27.98828125 C-10.44328934 26.8223494 -10.46079742 25.65641754 -10.47883606 24.45515442 C-10.45561677 15.66471593 -9.04422057 8.83904817 -2.75 2.4375 C-1.38875 1.2309375 -1.38875 1.2309375 0 0 Z " fill="#254BD2" transform="translate(21,14)"/>
<path d="M0 0 C4.79992844 3.1134671 6.68368712 6.55802161 8 12 C8.40770566 16.20505776 8.39730238 20.37948304 8.36328125 24.6015625 C8.36377975 25.79679535 8.36427826 26.9920282 8.36479187 28.22348022 C8.36245981 30.73982412 8.35278284 33.25617072 8.33618164 35.77246094 C8.31253471 39.61935295 8.31563465 43.46555346 8.32226562 47.3125 C8.31669002 49.76302495 8.30958088 52.213547 8.30078125 54.6640625 C8.30214836 56.38455307 8.30214836 56.38455307 8.30354309 58.13980103 C8.25633374 63.46331024 8.18455394 68.03732832 6 73 C5.67 73 5.34 73 5 73 C5.00888245 72.27194656 5.01776489 71.54389313 5.0269165 70.79377747 C5.10715951 63.92298657 5.16801368 57.05226597 5.20724869 50.18112659 C5.22809843 46.64878618 5.25636679 43.11683387 5.30175781 39.5847168 C5.35364825 35.52128433 5.37296666 31.45825772 5.390625 27.39453125 C5.41127014 26.1297847 5.43191528 24.86503815 5.45318604 23.56196594 C5.45348816 22.38111923 5.45379028 21.20027252 5.45410156 19.98364258 C5.46298401 18.94661697 5.47186646 17.90959137 5.48101807 16.84114075 C4.88137564 13.29934338 3.29635985 11.69476414 1 9 C1.375 6.4375 1.375 6.4375 2 4 C1.15922128 1.73142854 1.15922128 1.73142854 0 0 Z " fill="#264BD1" transform="translate(97,17)"/>
<path d="M0 0 C1.485 0.99 1.485 0.99 3 2 C3.41620943 5.69593971 3.13007474 9.27119087 3 13 C8.94 13.33 14.88 13.66 21 14 C21 15.32 21 16.64 21 18 C13.74 18 6.48 18 -1 18 C-1.020625 15.215625 -1.04125 12.43125 -1.0625 9.5625 C-1.071604 8.68408447 -1.08070801 7.80566895 -1.09008789 6.90063477 C-1.09723091 4.93354026 -1.05031893 2.96646379 -1 1 C-0.67 0.67 -0.34 0.34 0 0 Z " fill="#FCFDFD" transform="translate(50,57)"/>
<path d="M0 0 C5.28 0 10.56 0 16 0 C15.67 0.99 15.34 1.98 15 3 C14.34 2.67 13.68 2.34 13 2 C13.33 4.64 13.66 7.28 14 10 C9.38 10 4.76 10 0 10 C0 6.7 0 3.4 0 0 Z " fill="#1548FA" transform="translate(56,59)"/>
<path d="M0 0 C0.99829834 -0.00095673 1.99659668 -0.00191345 3.02514648 -0.00289917 C5.1297207 -0.00357777 7.23429703 -0.00174583 9.33886719 0.00244141 C12.55148033 0.00779414 15.76395368 0.00248553 18.9765625 -0.00390625 C21.02604197 -0.00324541 23.07552136 -0.00196413 25.125 0 C26.08140381 -0.00202423 27.03780762 -0.00404846 28.02319336 -0.00613403 C32.65071318 0.01005298 37.01033761 0.17939579 41.5625 1.1328125 C41.5625 1.4628125 41.5625 1.7928125 41.5625 2.1328125 C40.50134224 2.14494278 40.50134224 2.14494278 39.41874695 2.15731812 C32.75311419 2.23524587 26.08767742 2.32253088 19.42230511 2.42033958 C15.99552652 2.47029422 12.56877864 2.51662407 9.1418457 2.5546875 C5.20245917 2.59860137 1.26338692 2.65824978 -2.67578125 2.71875 C-4.5227636 2.73607681 -4.5227636 2.73607681 -6.40705872 2.75375366 C-7.54801498 2.77362335 -8.68897125 2.79349304 -9.86450195 2.81396484 C-10.870439 2.82728851 -11.87637604 2.84061218 -12.91279602 2.8543396 C-15.68256609 2.96387005 -15.68256609 2.96387005 -18.4375 5.1328125 C-20.625 4.7578125 -20.625 4.7578125 -22.4375 4.1328125 C-14.99874965 0.05921112 -8.28026375 -0.0175252 0 0 Z " fill="#2D50D1" transform="translate(45.4375,8.8671875)"/>
<path d="M0 0 C3.3 0 6.6 0 10 0 C10 2.64 10 5.28 10 8 C9.01 8.33 8.02 8.66 7 9 C7 11.64 7 14.28 7 17 C6.34 17 5.68 17 5 17 C5 13.7 5 10.4 5 7 C6.32 6.67 7.64 6.34 9 6 C9 4.35 9 2.7 9 1 C3.68588506 2.92391649 3.68588506 2.92391649 0 7 C-0.22057813 10.38099262 -0.3179752 13.72091021 -0.30273438 17.10742188 C-0.36328125 19.21484375 -0.36328125 19.21484375 -1 23 C-3.48046875 25.31640625 -3.48046875 25.31640625 -6 27 C-6.33 27.99 -6.66 28.98 -7 30 C-7.66 30 -8.32 30 -9 30 C-9 28.35 -9 26.7 -9 25 C-8.01 25 -7.02 25 -6 25 C-6 24.34 -6 23.68 -6 23 C-6.66 22.67 -7.32 22.34 -8 22 C-6.35 22.33 -4.7 22.66 -3 23 C-3.03480469 21.92621094 -3.06960937 20.85242188 -3.10546875 19.74609375 C-3.13362918 18.30991161 -3.16092691 16.87371238 -3.1875 15.4375 C-3.21263672 14.73302734 -3.23777344 14.02855469 -3.26367188 13.30273438 C-3.33532304 8.11996685 -2.32172598 4.63735818 0 0 Z " fill="#2C51DB" transform="translate(28,28)"/>
<path d="M0 0 C1.258125 -0.04125 2.51625 -0.0825 3.8125 -0.125 C4.52019531 -0.14820312 5.22789063 -0.17140625 5.95703125 -0.1953125 C8 0 8 0 11 2 C12.25433458 5.76300374 12.10695422 9.27210909 12.0625 13.1875 C12.05798828 13.93708984 12.05347656 14.68667969 12.04882812 15.45898438 C12.03706354 17.30602383 12.01912865 19.15302213 12 21 C11.67 21 11.34 21 11 21 C10.93941406 19.95199219 10.87882812 18.90398438 10.81640625 17.82421875 C10.73198262 16.44529952 10.64733553 15.06639395 10.5625 13.6875 C10.50352539 12.65206055 10.50352539 12.65206055 10.44335938 11.59570312 C10.25072585 8.52838465 9.97677283 5.93031848 9 3 C6.69 2.67 4.38 2.34 2 2 C2.27617533 3.94074861 2.27617533 3.94074861 3 6 C3.99 6.66 4.98 7.32 6 8 C6.43237305 9.87939453 6.43237305 9.87939453 6.51171875 12.1328125 C6.54716797 12.93847656 6.58261719 13.74414062 6.61914062 14.57421875 C6.64169922 15.41597656 6.66425781 16.25773437 6.6875 17.125 C6.72166016 17.97449219 6.75582031 18.82398437 6.79101562 19.69921875 C6.87359173 21.79901105 6.93846978 23.89948564 7 26 C6.34 25.67 5.68 25.34 5 25 C5 19.72 5 14.44 5 9 C3.35 8.67 1.7 8.34 0 8 C0 5.36 0 2.72 0 0 Z " fill="#375BE1" transform="translate(78,28)"/>
<path d="M0 0 C7.875 0.875 7.875 0.875 9 2 C10.62579218 2.12281952 12.25677004 2.17782504 13.88696289 2.20532227 C14.92796646 2.22526749 15.96897003 2.24521271 17.04151917 2.26576233 C18.1737944 2.28247482 19.30606964 2.29918732 20.47265625 2.31640625 C21.62543564 2.33718735 22.77821503 2.35796844 23.96592712 2.37937927 C27.66472157 2.44499964 31.36358959 2.50381755 35.0625 2.5625 C37.56315879 2.60567335 40.06381001 2.64928724 42.56445312 2.69335938 C48.70955662 2.80069368 54.85473404 2.90243643 61 3 C61 3.33 61 3.66 61 4 C53.43780999 4.07621816 45.87571949 4.12867069 38.31323242 4.16479492 C35.7419057 4.17985844 33.17060457 4.2003132 30.59936523 4.22631836 C26.89821038 4.26280761 23.197396 4.27975121 19.49609375 4.29296875 C18.35103867 4.30845261 17.20598358 4.32393646 16.02622986 4.33988953 C9.88758286 4.34117676 5.42377814 3.95563523 0 1 C0 0.67 0 0.34 0 0 Z " fill="#3F64E4" transform="translate(24,100)"/>
<path d="M0 0 C1.54897985 3.0979597 0.83239539 6.26216552 0.5625 9.625 C0.51029297 10.33140625 0.45808594 11.0378125 0.40429688 11.765625 C0.27458793 13.51079987 0.13795046 15.25545725 0 17 C-1.65 17.66 -3.3 18.32 -5 19 C-5 20.65 -5 22.3 -5 24 C-3.02 23.67 -1.04 23.34 1 23 C0.67 23.66 0.34 24.32 0 25 C-1.98 25 -3.96 25 -6 25 C-8 19.375 -8 19.375 -8 16 C-7.030625 15.7525 -6.06125 15.505 -5.0625 15.25 C-1.7392034 13.33450417 -1.7392034 13.33450417 -1.4140625 10.1640625 C-1.26392724 7.98451267 -1.16046212 5.80120988 -1.10546875 3.6171875 C-1 1 -1 1 0 0 Z " fill="#2A50E0" transform="translate(84,60)"/>
<path d="M0 0 C4.29 0 8.58 0 13 0 C13 1.98 13 3.96 13 6 C8.71 6 4.42 6 0 6 C0 9.96 0 13.92 0 18 C-0.66 18 -1.32 18 -2 18 C-2.19466332 16.20909747 -2.38051213 14.41723495 -2.5625 12.625 C-2.66691406 11.62726562 -2.77132812 10.62953125 -2.87890625 9.6015625 C-3 7 -3 7 -2 5 C2.62 5 7.24 5 12 5 C12 3.68 12 2.36 12 1 C8.04 1 4.08 1 0 1 C0 0.67 0 0.34 0 0 Z " fill="#D0E0FE" transform="translate(55,52)"/>
<path d="M0 0 C0 4.1068312 -1.13576833 5.06590902 -4 8 C-11.54768392 13 -11.54768392 13 -16 13 C-16 12.34 -16 11.68 -16 11 C-15.030625 10.71125 -14.06125 10.4225 -13.0625 10.125 C-9.89335797 9.35785318 -9.89335797 9.35785318 -9 7 C-8.34 6.855625 -7.68 6.71125 -7 6.5625 C-6.01 6.2840625 -6.01 6.2840625 -5 6 C-4.67 5.01 -4.34 4.02 -4 3 C-1.9375 1.3125 -1.9375 1.3125 0 0 Z " fill="#2E51D3" transform="translate(101,90)"/>
<path d="M0 0 C0.99 0.99 1.98 1.98 3 3 C3.66 2.67 4.32 2.34 5 2 C6.60725635 5.21451269 6.05748185 8.43612536 6 12 C5.34 12 4.68 12 4 12 C4 10.35 4 8.7 4 7 C2.68 6.67 1.36 6.34 0 6 C0 4.02 0 2.04 0 0 Z " fill="#274EE2" transform="translate(33,72)"/>
<path d="M0 0 C5.625 -0.25 5.625 -0.25 9 2 C10.25433458 5.76300374 10.10695422 9.27210909 10.0625 13.1875 C10.05798828 13.93708984 10.05347656 14.68667969 10.04882812 15.45898438 C10.03706354 17.30602383 10.01912865 19.15302213 10 21 C9.67 21 9.34 21 9 21 C8.93941406 19.95199219 8.87882812 18.90398438 8.81640625 17.82421875 C8.73198262 16.44529952 8.64733553 15.06639395 8.5625 13.6875 C8.50352539 12.65206055 8.50352539 12.65206055 8.44335938 11.59570312 C8.25072585 8.52838465 7.97677283 5.93031848 7 3 C3.48809191 1.77030122 3.48809191 1.77030122 0 1 C0 0.67 0 0.34 0 0 Z " fill="#3052CB" transform="translate(80,28)"/>
<path d="M0 0 C2.5 1.6875 2.5 1.6875 5 4 C5.25 6.4375 5.25 6.4375 5 9 C5.29749946 10.67343448 5.62127066 12.34305915 6 14 C3.4375 11.8125 3.4375 11.8125 1 9 C1.3125 6.4375 1.3125 6.4375 2 4 C1.15922128 1.73142854 1.15922128 1.73142854 0 0 Z " fill="#254FEF" transform="translate(97,17)"/>
<path d="M0 0 C0.66 0 1.32 0 2 0 C2 0.66 2 1.32 2 2 C2.66 2 3.32 2 4 2 C4 2.99 4 3.98 4 5 C4.99 4.67 5.98 4.34 7 4 C7.66 6.31 8.32 8.62 9 11 C5.64379729 9.61122646 3.92701272 8.08322035 2 5 C2 4.34 2 3.68 2 3 C1.34 2.67 0.68 2.34 0 2 C0 1.34 0 0.68 0 0 Z " fill="#2C56DE" transform="translate(12,87)"/>
<path d="M0 0 C0.66 0.33 1.32 0.66 2 1 C0.06221159 3.49144224 -1.82364395 5.83401784 -4.125 8 C-6.19710352 10.21024375 -7.04888818 12.14666454 -8 15 C-9 12 -9 12 -7.375 8.625 C-5.31233207 5.22808883 -2.92165831 2.67818678 0 0 Z " fill="#3553D5" transform="translate(21,14)"/>
<path d="M0 0 C1.32 0 2.64 0 4 0 C4 0.66 4 1.32 4 2 C3.34 2 2.68 2 2 2 C2 4.64 2 7.28 2 10 C1.34 10 0.68 10 0 10 C0 6.7 0 3.4 0 0 Z " fill="#224CD8" transform="translate(33,35)"/>
<path d="M0 0 C1.32 0.33 2.64 0.66 4 1 C4 2.32 4 3.64 4 5 C3.01 5.495 3.01 5.495 2 6 C0 3 0 3 0 0 Z " fill="#2048E2" transform="translate(83,54)"/>
<path d="M0 0 C7.50769231 0.61538462 7.50769231 0.61538462 10 2.5625 C10.33 3.036875 10.66 3.51125 11 4 C6.94393835 3.53199289 3.53411321 3.12046792 0 1 C0 0.67 0 0.34 0 0 Z " fill="#2B54D5" transform="translate(24,100)"/>
<path d="M0 0 C0 0.33 0 0.66 0 1 C-3.98060777 2.17076699 -7.91621717 3.25749403 -12 4 C-8.35616205 0.00912986 -5.26350451 -0.11696677 0 0 Z " fill="#3353D2" transform="translate(35,10)"/>
<path d="" fill="#FFFFFF" transform="translate(0,0)"/>
<path d="" fill="#FFFFFF" transform="translate(0,0)"/>
<path d="" fill="#FFFFFF" transform="translate(0,0)"/>
<path d="" fill="#FFFFFF" transform="translate(0,0)"/>
<path d="" fill="#FFFFFF" transform="translate(0,0)"/>
<path d="" fill="#FFFFFF" transform="translate(0,0)"/>
<path d="" fill="#FFFFFF" transform="translate(0,0)"/>
<path d="" fill="#FFFFFF" transform="translate(0,0)"/>
<path d="" fill="#FFFFFF" transform="translate(0,0)"/>
<path d="" fill="#FFFFFF" transform="translate(0,0)"/>
<path d="" fill="#FFFFFF" transform="translate(0,0)"/>
<path d="" fill="#FFFFFF" transform="translate(0,0)"/>
<path d="" fill="#FFFFFF" transform="translate(0,0)"/>
<path d="" fill="#FFFFFF" transform="translate(0,0)"/>
<path d="" fill="#FFFFFF" transform="translate(0,0)"/>
<path d="" fill="#FFFFFF" transform="translate(0,0)"/>
<path d="" fill="#FFFFFF" transform="translate(0,0)"/>
<path d="" fill="#FFFFFF" transform="translate(0,0)"/>
<path d="" fill="#FFFFFF" transform="translate(0,0)"/>
<path d="" fill="#FFFFFF" transform="translate(0,0)"/>
<path d="" fill="#FFFFFF" transform="translate(0,0)"/>
<path d="" fill="#FFFFFF" transform="translate(0,0)"/>
<path d="" fill="#FFFFFF" transform="translate(0,0)"/>
<path d="" fill="#FFFFFF" transform="translate(0,0)"/>
<path d="" fill="#FFFFFF" transform="translate(0,0)"/>
<path d="" fill="#FFFFFF" transform="translate(0,0)"/>
<path d="" fill="#FFFFFF" transform="translate(0,0)"/>
<path d="" fill="#FFFFFF" transform="translate(0,0)"/>
<path d="" fill="#FFFFFF" transform="translate(0,0)"/>
<path d="" fill="#FFFFFF" transform="translate(0,0)"/>
<path d="" fill="#FFFFFF" transform="translate(0,0)"/>
<path d="" fill="#FFFFFF" transform="translate(0,0)"/>
<path d="" fill="#FFFFFF" transform="translate(0,0)"/>
<path d="" fill="#FFFFFF" transform="translate(0,0)"/>
<path d="" fill="#FFFFFF" transform="translate(0,0)"/>
<path d="" fill="#FFFFFF" transform="translate(0,0)"/>
<path d="" fill="#FFFFFF" transform="translate(0,0)"/>
<path d="" fill="#FFFFFF" transform="translate(0,0)"/>
<path d="" fill="#FFFFFF" transform="translate(0,0)"/>
<path d="" fill="#FFFFFF" transform="translate(0,0)"/>
<path d="" fill="#FFFFFF" transform="translate(0,0)"/>
<path d="" fill="#FFFFFF" transform="translate(0,0)"/>
<path d="" fill="#FFFFFF" transform="translate(0,0)"/>
</svg>
